<svg height='100px' width='100px'  fill="#000000" xmlns="http://www.w3.org/2000/svg" xmlns:xlink="http://www.w3.org/1999/xlink" version="1.1" x="0px" y="0px" viewBox="0 0 90 90" enable-background="new 0 0 90 90" xml:space="preserve"><path d="M29.77832,59.10547h18.01514l-2.34229,24.50586l29.98828-50.85156L61.61621,8.81738c0,0-1.87451-2.10156-1.5542-0.07617  c0.16113,1.01367,0.87109,3.05762,2.63818,6.91309c0.88379,1.92773,2.03271,4.30762,3.50879,7.2373  c0.74756,1.45996,1.56836,3.0625,2.46826,4.82031c0.45752,0.87402,0.93506,1.78809,1.43457,2.74121  c0.25098,0.47656,0.50635,0.96191,0.76904,1.45898l0.19727,0.37109l0.07227,0.15625l0.1377,0.30078l-0.23975,0.33594  l-0.06592,0.09375l-0.14355,0.22754l-0.29102,0.45801c-0.38916,0.61621-0.7876,1.24609-1.19434,1.8916  c-0.81055,1.29199-1.6582,2.64355-2.54492,4.05762c-1.75488,2.83887-3.66455,5.92676-5.74023,9.2832  c-2.05225,3.37109-4.26953,7.01367-6.66357,10.94629c-0.59521,0.98535-1.20117,1.98926-1.81787,3.01172l-0.46436,0.77051  l-0.23096,0.38281l-0.0166,0.02051l-0.05908,0.06836c-0.0708,0.08008-0.10693,0.10742-0.12158,0.10254  c0.02783-0.13672,0.04736-0.20898,0.06006-0.24414c0.29834-3.05566,0.60693-6.2168,0.92676-9.48438  c-2.44873-0.00098-4.95068-0.00195-7.49561-0.00293c-4.50586,0.00879-8.7876,0.0166-12.85449,0.02344  c-2.43506-4.15918-4.71973-8.06152-6.86279-11.72266c-1.17773-1.99805-2.31738-3.92969-3.41895-5.79785  c-0.55225-0.93262-1.09521-1.84863-1.62891-2.75098c-0.26807-0.4502-0.53271-0.89648-0.79492-1.33887  c-0.18457-0.31152-0.12646-0.20508-0.15967-0.25586l-0.05078-0.06934c2.55908-4.63379,4.8623-8.80273,6.93506-12.55566  c1.10645-2.03125,2.15088-3.9502,3.13672-5.76172c0.48926-0.9082,0.96338-1.78906,1.42383-2.64453  c0.229-0.42871,0.45508-0.84961,0.67725-1.26465c0.07227-0.13379,0.06299-0.12402,0.08936-0.17676l0.05518-0.12109l0.11621-0.24805  l0.32959-0.0293l0.17822-0.0166l0.42236-0.01563c0.56055-0.02148,1.10986-0.04102,1.64746-0.06152  c1.07568-0.0459,2.10498-0.08789,3.0918-0.12988c1.97168-0.09961,3.77002-0.18945,5.4082-0.27148  c3.27637-0.18652,5.9126-0.38184,8.02295-0.58008c4.22363-0.39746,6.34814-0.80566,7.30615-1.17188  c1.91406-0.73633-0.84424-1.30957-0.84424-1.30957H29.77832l-15.21777,26.3584L29.77832,59.10547z"></path></svg>