<?xml version="1.0" encoding="utf-8"?>
<!-- Generator: Adobe Illustrator 24.3.0, SVG Export Plug-In . SVG Version: 6.00 Build 0)  -->
<svg version="1.1" id="Layer_1" xmlns="http://www.w3.org/2000/svg" xmlns:xlink="http://www.w3.org/1999/xlink" x="0px" y="0px"
	 viewBox="0 0 100 100" style="enable-background:new 0 0 100 100;" xml:space="preserve">
<style type="text/css">
	.st0{fill:none;}
	.st1{fill:#FFFFFF;}
	.st2{opacity:0.22;fill:#FFFFFF;}
</style>
<g>
	<path class="st0" d="M34.6,28.1c0.2,0.3,0.4,0.5,0.6,0.8c-0.1-0.8-0.2-1.5-0.3-2C34.8,27.3,34.7,27.7,34.6,28.1z"/>
	<path class="st0" d="M63.4,24.9c0,0-0.1,0-0.1,0l-1.3,1.3l-16.4-8.5c-5.4-0.5-6.2,6.7-6.3,7.3c0,0,0,0,0,0h0
		c-0.2-0.2-0.4-0.2-0.6-0.2c-0.1,0-0.2,0-0.2,0.1c-0.5,0.4-0.7,1.7-0.5,3.1c0.2,1.1,0.6,2.1,1.1,2.5c0.2,0.2,0.5,0.3,0.7,0.3
		c0.1,0,0.2-0.1,0.3-0.2c0.1,0.4,0.3,0.9,0.5,1.3c1.6,0.4,3.3,0.6,5,0.5c0.3-0.7,1-1.2,1.8-1.4c1.3-0.2,2.5,0.6,2.7,1.9
		c0.2,1.3-0.6,2.5-1.9,2.7c-0.9,0.2-1.8-0.2-2.3-0.9c-0.4,0-0.8,0.1-1.2,0.1c-0.9,0-1.9-0.1-2.8-0.2c1.1,1.9,2.5,3.6,4,4.8
		c1.6,1.2,3.3,1.9,5.1,1.9c1.8,0,3.6-0.7,5.1-1.9c2.6-2,4.7-5.4,5.8-8.8c0.1,0.1,0.2,0.1,0.3,0.2c0.2,0,0.4,0,0.6-0.2
		c0.5-0.4,1-1.4,1.2-2.6C64.2,26.5,64,25.2,63.4,24.9z"/>
	<path class="st0" d="M50.3,5c0.2,0,0.4,0,0.6,0c0.2,0,0.4,0,0.6,0c0,0,13.8-2,15.4,16.9c0.1-1.2,0.3-2.3,0.6-3.2
		C65.6,10,58.9,3.6,51,3.6c-8,0-14.7,6.5-16.6,15.1c0.2,0.7,0.4,1.5,0.5,2.4C37,3.1,50.3,5,50.3,5z"/>
	<path class="st0" d="M58.7,40.5C58.7,40.5,58.7,40.5,58.7,40.5c-1.4,1.3-2.9,2.4-4.4,3c-1.1,0.4-2.2,0.7-3.4,0.7
		c-1.2,0-2.3-0.2-3.4-0.7c-1.6-0.6-3.1-1.7-4.5-3h0c0,1.6-1.3,2.6-2.1,3c-0.1,0.1-0.2,0.1-0.3,0.1c-0.2,0.1-0.4,0.2-0.4,0.2
		c0.1,0.4,0.2,0.8,0.5,1.2c1.4,1.8,5.4,4.4,10.1,4.4c4.7,0,8.6-2.6,10.1-4.4c0.3-0.4,0.5-0.8,0.5-1.2c0,0,0,0,0,0
		C60.9,43.6,58.8,42.6,58.7,40.5z"/>
	<path class="st0" d="M23.1,96.4H78c2.3,0,4.1-1.8,4.1-4.1l5.5-31.9c0-2.2-1.9-4.1-4.1-4.1H17.6c-2.3,0-4.1,1.9-4.1,4.1L19,92.2
		C19,94.5,20.8,96.4,23.1,96.4z M50.6,73.8c1.1,0,2,0.9,2,2c0,1.1-0.9,2-2,2c-1.1,0-2-0.9-2-2C48.6,74.7,49.5,73.8,50.6,73.8z"/>
	<path class="st1" d="M81.7,97.8H19.4c-0.6,0-1.1,0.5-1.1,1.1c0,0.6,0.5,1.1,1.1,1.1h62.4c0.6,0,1.1-0.5,1.1-1.1
		C82.8,98.3,82.4,97.8,81.7,97.8z"/>
	<path class="st1" d="M23.1,96.9H78c2.6,0,4.7-2.1,4.7-4.6l5.5-31.9c0-2.6-2.1-4.7-4.7-4.7H79c0,0.1,0.1,0.2,0.1,0.3H22.6
		c0-0.1,0.1-0.2,0.1-0.3h-5.1c-2.6,0-4.7,2.1-4.7,4.7l0.1,0.7l5.4,31.1C18.4,94.8,20.5,96.9,23.1,96.9z M17.6,56.2h65.9
		c2.3,0,4.1,1.9,4.1,4.1l-5.5,31.9c0,2.3-1.8,4.1-4.1,4.1H23.1c-2.3,0-4.1-1.8-4.1-4.2l-5.5-31.8C13.5,58.1,15.3,56.2,17.6,56.2z"/>
	<circle class="st1" cx="50.6" cy="75.8" r="2"/>
	<path class="st1" d="M79.1,56c0-0.1-0.1-0.2-0.1-0.3c-3.3-10.3-9-10.7-10.3-11c-0.2,0-0.3-0.1-0.5-0.1c-3.5-3.3-1.7-15.9-1.3-18.3
		c0.4,2.9,1.6,5,2.9,5c1.7,0,3.1-3.4,3.1-7.6c0-3.6-1-6.6-2.3-7.4C67.8,6.8,60.1,0,51,0c-9.1,0-16.9,6.8-19.6,16.2
		C30,17.1,29,20.1,29,23.6c0,4.2,1.4,7.6,3.1,7.6c0.5,0,0.9-0.3,1.3-0.8c0.6,0.7,1.3,1.3,2,1.8c0.3,4.6,0.2,10.2-2,12.3
		c-0.2,0-0.3,0.1-0.5,0.1c-1.3,0.3-7,0.7-10.3,11c0,0.1-0.1,0.2-0.1,0.3L79.1,56L79.1,56z M61.5,43.8c-0.1,0.4-0.2,0.8-0.5,1.2
		c-1.4,1.8-5.4,4.4-10.1,4.4c-4.7,0-8.6-2.6-10.1-4.4c-0.3-0.4-0.5-0.8-0.5-1.2c0.1,0,0.2-0.1,0.4-0.2c0.1,0,0.2-0.1,0.3-0.1
		c0.9-0.4,2.1-1.4,2.1-3h0c1.4,1.3,2.9,2.4,4.5,3c1.1,0.4,2.2,0.7,3.4,0.7c1.2,0,2.3-0.2,3.4-0.7c1.6-0.6,3.1-1.7,4.4-3c0,0,0,0,0,0
		C58.8,42.6,60.9,43.6,61.5,43.8C61.5,43.8,61.5,43.8,61.5,43.8z M63.9,28.1c-0.2,1.2-0.7,2.2-1.2,2.6c-0.2,0.2-0.4,0.2-0.6,0.2
		c-0.1,0-0.2-0.1-0.3-0.2c-1.1,3.4-3.2,6.8-5.8,8.8c-1.5,1.2-3.3,1.9-5.1,1.9c-1.8,0-3.6-0.7-5.1-1.9c-1.6-1.2-2.9-2.9-4-4.8
		c0.9,0.1,1.8,0.2,2.8,0.2c0.4,0,0.8,0,1.2-0.1c0.5,0.7,1.4,1.1,2.3,0.9c1.3-0.2,2.2-1.5,1.9-2.7c-0.2-1.3-1.5-2.2-2.7-1.9
		c-0.8,0.1-1.5,0.7-1.8,1.4c-1.7,0.1-3.4-0.1-5-0.5c-0.2-0.4-0.3-0.9-0.5-1.3c-0.1,0.1-0.2,0.1-0.3,0.2c-0.2,0-0.5-0.1-0.7-0.3
		c-0.5-0.5-0.9-1.4-1.1-2.5c-0.3-1.5-0.1-2.8,0.5-3.1c0.1-0.1,0.1-0.1,0.2-0.1c0.2,0,0.4,0,0.6,0.2h0c0,0,0,0,0,0
		c0.1-0.6,0.9-7.8,6.3-7.3l16.4,8.5l1.3-1.3c0,0,0.1,0,0.1,0C64,25.2,64.2,26.5,63.9,28.1z M34.6,28.1c0.1-0.4,0.2-0.8,0.3-1.3
		c0.1,0.5,0.2,1.2,0.3,2C34.9,28.6,34.7,28.3,34.6,28.1z M35,21.1c-0.1-0.9-0.3-1.7-0.5-2.4C36.3,10,43,3.6,51,3.6
		c8,0,14.7,6.5,16.6,15.1c-0.3,0.9-0.5,2-0.6,3.2C65.2,3,51.4,5,51.4,5c-0.2,0-0.4,0-0.6,0c-0.2,0-0.4,0-0.6,0
		C50.3,5,37,3.1,35,21.1z"/>
	<polygon class="st2" points="13.5,62.3 13.2,59.7 13.8,58.1 15.4,56.5 17.3,56 84.1,56 86.5,57.1 87.8,59.1 87.8,60.7 82.3,93.6 
		81.3,95.2 79.3,96.5 75,96.5 22.6,96.5 20.4,95.8 18.8,94.1 18.7,91.7 	"/>
</g>
</svg>
